<svg width="65" height="65" viewBox="0 0 65 65" fill="none" xmlns="http://www.w3.org/2000/svg">
<path d="M4.15501 47.598V46.2727H11.1181V47.598H8.42063V55H6.85245V47.598H4.15501ZM14.3407 55.1278C13.6845 55.1278 13.1177 54.9915 12.6404 54.7188C12.166 54.4432 11.801 54.054 11.5453 53.5511C11.2896 53.0455 11.1618 52.4503 11.1618 51.7656C11.1618 51.0923 11.2896 50.5014 11.5453 49.9929C11.8038 49.4815 12.1646 49.0838 12.6277 48.7997C13.0907 48.5128 13.6348 48.3693 14.2598 48.3693C14.6632 48.3693 15.0439 48.4347 15.4018 48.5653C15.7626 48.6932 16.0808 48.892 16.3564 49.1619C16.6348 49.4318 16.8535 49.7756 17.0126 50.1932C17.1717 50.608 17.2512 51.1023 17.2512 51.6761V52.1491H11.8862V51.1094H15.7725C15.7697 50.8139 15.7058 50.5511 15.5808 50.321C15.4558 50.0881 15.2811 49.9048 15.0566 49.7713C14.835 49.6378 14.5765 49.571 14.2811 49.571C13.9657 49.571 13.6887 49.6477 13.4501 49.8011C13.2115 49.9517 13.0254 50.1506 12.8919 50.3977C12.7612 50.642 12.6944 50.9105 12.6916 51.2031V52.1108C12.6916 52.4915 12.7612 52.8182 12.9004 53.0909C13.0396 53.3608 13.2342 53.5682 13.4842 53.7131C13.7342 53.8551 14.0268 53.9261 14.362 53.9261C14.5865 53.9261 14.7896 53.8949 14.9714 53.8324C15.1532 53.767 15.3109 53.6719 15.4444 53.5469C15.5779 53.4219 15.6788 53.267 15.747 53.0824L17.1873 53.2443C17.0964 53.625 16.9231 53.9574 16.6674 54.2415C16.4146 54.5227 16.0907 54.7415 15.6958 54.8977C15.301 55.0511 14.8493 55.1278 14.3407 55.1278ZM21.4114 55.1278C20.758 55.1278 20.1969 54.9844 19.7282 54.6974C19.2623 54.4105 18.9029 54.0142 18.65 53.5085C18.4 53 18.275 52.4148 18.275 51.7528C18.275 51.0881 18.4029 50.5014 18.6586 49.9929C18.9142 49.4815 19.275 49.0838 19.7409 48.7997C20.2097 48.5128 20.7637 48.3693 21.4029 48.3693C21.9341 48.3693 22.4043 48.4673 22.8134 48.6634C23.2253 48.8565 23.5534 49.1307 23.7978 49.4858C24.0421 49.8381 24.1813 50.25 24.2154 50.7216H22.7409C22.6813 50.4062 22.5392 50.1435 22.3148 49.9332C22.0932 49.7202 21.7963 49.6136 21.4242 49.6136C21.1088 49.6136 20.8319 49.6989 20.5932 49.8693C20.3546 50.0369 20.1685 50.2784 20.035 50.5938C19.9043 50.9091 19.839 51.2869 19.839 51.7273C19.839 52.1733 19.9043 52.5568 20.035 52.8778C20.1657 53.196 20.3489 53.4418 20.5847 53.6151C20.8233 53.7855 21.1032 53.8707 21.4242 53.8707C21.6515 53.8707 21.8546 53.8281 22.0336 53.7429C22.2154 53.6548 22.3674 53.5284 22.4895 53.3636C22.6117 53.1989 22.6955 52.9986 22.7409 52.7628H24.2154C24.1784 53.2259 24.0421 53.6364 23.8063 53.9943C23.5705 54.3494 23.2495 54.6278 22.8432 54.8295C22.437 55.0284 21.9597 55.1278 21.4114 55.1278ZM27.0247 51.1648V55H25.4821V46.2727H26.9906V49.5668H27.0673C27.2207 49.1974 27.4579 48.9062 27.7789 48.6932C28.1028 48.4773 28.5147 48.3693 29.0147 48.3693C29.4693 48.3693 29.8656 48.4645 30.2037 48.6548C30.5417 48.8452 30.8031 49.1236 30.9877 49.4901C31.1752 49.8565 31.269 50.304 31.269 50.8324V55H29.7264V51.071C29.7264 50.6307 29.6127 50.2884 29.3855 50.044C29.161 49.7969 28.8457 49.6733 28.4395 49.6733C28.1667 49.6733 27.9224 49.733 27.7065 49.8523C27.4934 49.9687 27.3258 50.1378 27.2037 50.3594C27.0843 50.581 27.0247 50.8494 27.0247 51.1648ZM32.9096 55V46.2727H36.1824C36.8528 46.2727 37.4153 46.3892 37.8699 46.6222C38.3272 46.8551 38.6724 47.1818 38.9054 47.6023C39.1412 48.0199 39.2591 48.5071 39.2591 49.0639C39.2591 49.6236 39.1397 50.1094 38.9011 50.5213C38.6653 50.9304 38.3173 51.2472 37.8571 51.4716C37.3968 51.6932 36.8315 51.804 36.161 51.804H33.8301V50.4915H35.948C36.34 50.4915 36.661 50.4375 36.911 50.3295C37.161 50.2187 37.3457 50.0582 37.465 49.848C37.5872 49.6349 37.6483 49.3736 37.6483 49.0639C37.6483 48.7543 37.5872 48.4901 37.465 48.2713C37.3429 48.0497 37.1568 47.8821 36.9068 47.7685C36.6568 47.652 36.3343 47.5938 35.9395 47.5938H34.4906V55H32.9096ZM37.4181 51.0455L39.5787 55H37.8145L35.6923 51.0455H37.4181ZM43.4501 55.1278C42.7939 55.1278 42.2271 54.9915 41.7498 54.7188C41.2754 54.4432 40.9103 54.054 40.6547 53.5511C40.399 53.0455 40.2711 52.4503 40.2711 51.7656C40.2711 51.0923 40.399 50.5014 40.6547 49.9929C40.9132 49.4815 41.274 49.0838 41.737 48.7997C42.2001 48.5128 42.7441 48.3693 43.3691 48.3693C43.7725 48.3693 44.1532 48.4347 44.5112 48.5653C44.872 48.6932 45.1902 48.892 45.4657 49.1619C45.7441 49.4318 45.9629 49.7756 46.122 50.1932C46.2811 50.608 46.3606 51.1023 46.3606 51.6761V52.1491H40.9956V51.1094H44.8819C44.8791 50.8139 44.8152 50.5511 44.6902 50.321C44.5652 50.0881 44.3904 49.9048 44.166 49.7713C43.9444 49.6378 43.6859 49.571 43.3904 49.571C43.0751 49.571 42.7981 49.6477 42.5595 49.8011C42.3208 49.9517 42.1348 50.1506 42.0012 50.3977C41.8706 50.642 41.8038 50.9105 41.801 51.2031V52.1108C41.801 52.4915 41.8706 52.8182 42.0098 53.0909C42.149 53.3608 42.3436 53.5682 42.5936 53.7131C42.8436 53.8551 43.1362 53.9261 43.4714 53.9261C43.6958 53.9261 43.899 53.8949 44.0808 53.8324C44.2626 53.767 44.4203 53.6719 44.5538 53.5469C44.6873 53.4219 44.7882 53.267 44.8564 53.0824L46.2967 53.2443C46.2058 53.625 46.0325 53.9574 45.7768 54.2415C45.524 54.5227 45.2001 54.7415 44.8052 54.8977C44.4103 55.0511 43.9586 55.1278 43.4501 55.1278ZM49.5492 55.1321C49.1344 55.1321 48.7608 55.0582 48.4284 54.9105C48.0989 54.7599 47.8375 54.5384 47.6444 54.2457C47.454 53.9531 47.3588 53.5923 47.3588 53.1634C47.3588 52.794 47.427 52.4886 47.5634 52.2472C47.6998 52.0057 47.8858 51.8125 48.1216 51.6676C48.3574 51.5227 48.623 51.4134 48.9185 51.3395C49.2168 51.2628 49.525 51.2074 49.8432 51.1733C50.2267 51.1335 50.5378 51.098 50.7765 51.0668C51.0151 51.0327 51.1884 50.9815 51.2963 50.9134C51.4071 50.8423 51.4625 50.733 51.4625 50.5852V50.5597C51.4625 50.2386 51.3674 49.9901 51.177 49.8139C50.9867 49.6378 50.7125 49.5497 50.3546 49.5497C49.9767 49.5497 49.677 49.6321 49.4554 49.7969C49.2367 49.9616 49.089 50.1562 49.0123 50.3807L47.5719 50.1761C47.6855 49.7784 47.873 49.446 48.1344 49.179C48.3958 48.9091 48.7154 48.7074 49.0932 48.5739C49.4711 48.4375 49.8887 48.3693 50.3461 48.3693C50.6614 48.3693 50.9753 48.4062 51.2878 48.4801C51.6003 48.554 51.8858 48.6761 52.1444 48.8466C52.4029 49.0142 52.6103 49.2429 52.7665 49.5327C52.9256 49.8224 53.0051 50.1847 53.0051 50.6193V55H51.5222V54.1009H51.4711C51.3773 54.2827 51.2452 54.4531 51.0748 54.6122C50.9071 54.7685 50.6955 54.8949 50.4398 54.9915C50.187 55.0852 49.8901 55.1321 49.5492 55.1321ZM49.9498 53.9986C50.2594 53.9986 50.5279 53.9375 50.7551 53.8153C50.9824 53.6903 51.1571 53.5256 51.2793 53.321C51.4043 53.1165 51.4668 52.8935 51.4668 52.652V51.8807C51.4185 51.9205 51.3361 51.9574 51.2196 51.9915C51.106 52.0256 50.9782 52.0554 50.8361 52.081C50.6941 52.1065 50.5534 52.1293 50.4142 52.1491C50.275 52.169 50.1543 52.1861 50.052 52.2003C49.8219 52.2315 49.6159 52.2827 49.4341 52.3537C49.2523 52.4247 49.1088 52.5241 49.0037 52.652C48.8986 52.777 48.8461 52.9389 48.8461 53.1378C48.8461 53.4219 48.9498 53.6364 49.1571 53.7812C49.3645 53.9261 49.6287 53.9986 49.9498 53.9986ZM56.9853 55.1151C56.4711 55.1151 56.0108 54.983 55.6046 54.7188C55.1983 54.4545 54.8773 54.071 54.6415 53.5682C54.4057 53.0653 54.2878 52.4545 54.2878 51.7358C54.2878 51.0085 54.4071 50.3949 54.6458 49.8949C54.8873 49.392 55.2125 49.0128 55.6216 48.7571C56.0307 48.4986 56.4867 48.3693 56.9895 48.3693C57.373 48.3693 57.6884 48.4347 57.9355 48.5653C58.1827 48.6932 58.3787 48.848 58.5236 49.0298C58.6685 49.2088 58.7807 49.3778 58.8603 49.5369H58.9242V46.2727H60.4711V55H58.954V53.9688H58.8603C58.7807 54.1278 58.6657 54.2969 58.5151 54.4759C58.3645 54.652 58.1657 54.8026 57.9185 54.9276C57.6713 55.0526 57.3603 55.1151 56.9853 55.1151ZM57.4157 53.8494C57.7424 53.8494 58.0208 53.7614 58.2509 53.5852C58.481 53.4062 58.6557 53.1577 58.775 52.8395C58.8944 52.5213 58.954 52.1506 58.954 51.7273C58.954 51.304 58.8944 50.9361 58.775 50.6236C58.6586 50.3111 58.4853 50.0682 58.2551 49.8949C58.0279 49.7216 57.748 49.6349 57.4157 49.6349C57.0719 49.6349 56.785 49.7244 56.5549 49.9034C56.3248 50.0824 56.1515 50.3295 56.035 50.6449C55.9185 50.9602 55.8603 51.321 55.8603 51.7273C55.8603 52.1364 55.9185 52.5014 56.035 52.8224C56.1543 53.1406 56.329 53.392 56.5591 53.5767C56.7921 53.7585 57.0776 53.8494 57.4157 53.8494Z" fill="#121212"/>
<path d="M32.5 29.0882C28.3091 29.0882 24.9117 25.6908 24.9117 21.5C24.9117 17.3091 28.3091 13.9117 32.5 13.9117C36.6908 13.9117 40.0882 17.3091 40.0882 21.5C40.0882 25.6908 36.6908 29.0882 32.5 29.0882Z" fill="#AE9AFF"/>
<path d="M17.8605 24.5666C15.6854 24.9431 14.1945 27.0058 15.0295 29.0132C16.1951 31.8157 18.0548 34.3126 20.4658 36.2637C23.9132 39.0535 28.2615 40.5443 32.7286 40.4678C37.1957 40.3913 41.4884 38.7524 44.8346 35.8461C47.1746 33.8136 48.9445 31.2544 50.0099 28.4138C50.773 26.379 49.2095 24.3686 47.0224 24.0669C44.8354 23.7652 42.8717 25.328 41.7914 27.2192C41.2058 28.2443 40.4456 29.1743 39.5349 29.9653C37.615 31.6329 35.152 32.5731 32.5891 32.6171C30.0261 32.6609 27.5312 31.8057 25.5532 30.2049C24.6149 29.4456 23.8222 28.5422 23.2005 27.5378C22.0536 25.6848 20.0355 24.1901 17.8605 24.5666Z" fill="#AE9AFF"/>
<path d="M51.3239 23.3876C51.4208 22.6286 51.4706 21.8553 51.4706 21.0706C51.4706 10.8306 42.9772 2.52942 32.5 2.52942C22.0228 2.52942 13.5294 10.8306 13.5294 21.0706C13.5294 22.0777 13.6116 23.0659 13.7697 24.0294C14.641 22.8635 16.001 22.0313 17.4699 21.7781C19.0593 21.5042 20.5037 21.881 21.7251 22.5852C21.6529 22.0905 21.6156 21.5848 21.6156 21.0706C21.6156 15.1954 26.4887 10.4325 32.5 10.4325C38.5113 10.4325 43.3844 15.1954 43.3844 21.0706C43.3844 21.458 43.3632 21.8406 43.322 22.2172C44.5175 21.4715 45.9479 21.0454 47.5463 21.2651C49.023 21.4679 50.4114 22.2528 51.3239 23.3876Z" fill="#5429FF"/>
</svg>
